<svg id="Layer_1" data-name="Layer 1" xmlns="http://www.w3.org/2000/svg" viewBox="0 0 198.95 95.85"><defs><style>.cls-1{fill:red;}.cls-2{fill:blue;}</style></defs><title>pikiLogo</title><path class="cls-1" d="M26,73.45c-3,0-8.9-1.8-11.2-4.1v26.5H0V23.2H14.8v3.5c2.1-2.5,5.9-4.2,10.2-4.2,14.5,0,25.2,10.9,25.2,25.5S40.5,73.45,26,73.45Zm-2-39.7c-3.8,0-7.5,2.8-9.5,6.8a19.24,19.24,0,0,0-1.6,7.5,17.15,17.15,0,0,0,1.6,7.4c2.1,4.1,5.6,6.8,9.5,6.8,6.2,0,11.3-6.4,11.3-14.2S30.2,33.7,24,33.7Z"/><path class="cls-1" d="M66.7,16.5a7.62,7.62,0,0,1-7.8-7.44V9a7.52,7.52,0,0,1,7.73-7.3h.07c4.5,0,7.9,3.2,7.9,7.3a7.59,7.59,0,0,1-7.67,7.51Zm7.5,56.1H59.4V23.2H74.2Z"/><path class="cls-1" d="M102.5,52.31c-.4.4-1.1.9-1.7,1.4v18.9H85.9V0h14.9V35.6L115,23.2h22.1l-23.9,20c7.3,9,16.9,20.7,23.9,29.4H118.5Z"/><path class="cls-2" d="M174.1,49.76h-39V37.16h39Z"/><path class="cls-2" d="M191.05,15.65a7.62,7.62,0,0,1-7.8-7.44V8.15A7.52,7.52,0,0,1,191,.85h.07c4.5,0,7.9,3.2,7.9,7.3a7.59,7.59,0,0,1-7.67,7.51Zm7.5,56.1h-14.8V22.35h14.8Z"/><rect class="cls-2" y="72.6" width="14.8" height="23.2"/></svg>